<svg width="0" height="0" class="hidden">
  <symbol xmlns="http://www.w3.org/2000/svg" viewBox="0 0 16 20" id="fire">
    <path d="M8 20C4 20 0 17.3 0 12C0 10.3 0.6 8.00002 1.2 6.30002C1.32163 5.95539 1.66682 5.70002 2 5.70002C2.43582 5.70002 2.74889 5.9978 2.9 6.30002C3.1 6.90002 3.3 7.50002 3.5 8.00002C3.8595 8.95867 4.3 9.50002 5 10C4.58401 8.64352 4.58925 7.36919 5 6.00002C5.9 3.00002 7.5 1.50002 8.7 0.700015L8.9 0.600015C9.1 0.500015 9.4 0.600015 9.6 0.700015C9.8 0.800015 10 1.10002 10 1.50002C10 2.5 10.5762 4.57622 12 6C13.8485 7.60002 16 9.60002 16 13C16 16.9 12.4 20 8 20ZM2.1 8.50002C1.7 9.90001 1.5 11.1 1.5 12C1.5 16.5 4.9 18.5 8 18.5C11.6 18.5 14.5 16 14.5 13C14.5 9 11 8 9.5 5C8.99708 4.14944 8.92371 3.54399 8.7 2.50002C7.9 3.30002 7 4.5 6.5 6.30002C6.1116 7.46522 6.18948 8.60002 6.4 9.50002C6.6 10.1 6.4 10.7 6 11.1C5.5 11.5 4.9 11.6 4.3 11.3C3 10.5 2.5 9.5 2.1 8.50002Z"></path>
  </symbol>
  <symbol xmlns="http://www.w3.org/2000/svg" viewBox="0 0 24 24" id="group-people">
    <g>
      <path d="M18.0524 14.7625C18.138 14.8958 18.2619 14.9999 18.4047 15.0684C19.4963 15.5925 20.2499 16.7082 20.2499 18V20C20.2499 20.4142 20.5857 20.75 20.9999 20.75C21.4142 20.75 21.7499 20.4142 21.7499 20V18C21.7499 15.3766 19.6233 13.25 16.9999 13.25C16.8913 13.25 16.8423 13.3902 16.9245 13.4614C17.3597 13.838 17.7402 14.2763 18.0524 14.7625Z"></path>
      <path fill-rule="evenodd" clip-rule="evenodd" d="M7 14.75C5.20507 14.75 3.75 16.2051 3.75 18V20C3.75 20.4142 3.41421 20.75 3 20.75C2.58579 20.75 2.25 20.4142 2.25 20V18C2.25 15.3766 4.37665 13.25 7 13.25H13C15.6234 13.25 17.75 15.3766 17.75 18V20C17.75 20.4142 17.4142 20.75 17 20.75C16.5858 20.75 16.25 20.4142 16.25 20V18C16.25 16.2051 14.7949 14.75 13 14.75H7Z"></path>
      <path d="M14.8704 9.55748C14.9594 9.3884 15.1008 9.25336 15.2655 9.15651C16.0042 8.72208 16.5 7.91894 16.5 7C16.5 6.08106 16.0042 5.27792 15.2655 4.84349C15.1008 4.74664 14.9594 4.6116 14.8704 4.44252C14.6219 3.9701 14.3066 3.53827 13.9371 3.15954C13.8794 3.10037 13.9173 3 14 3C16.2091 3 18 4.79086 18 7C18 9.20914 16.2091 11 14 11C13.9173 11 13.8794 10.8996 13.9371 10.8405C14.3066 10.4617 14.6219 10.0299 14.8704 9.55748Z"></path>
      <path fill-rule="evenodd" clip-rule="evenodd" d="M10 9.5C11.3807 9.5 12.5 8.38071 12.5 7C12.5 5.61929 11.3807 4.5 10 4.5C8.61929 4.5 7.5 5.61929 7.5 7C7.5 8.38071 8.61929 9.5 10 9.5ZM10 11C12.2091 11 14 9.20914 14 7C14 4.79086 12.2091 3 10 3C7.79086 3 6 4.79086 6 7C6 9.20914 7.79086 11 10 11Z"></path>
    </g>
  </symbol>
  <symbol xmlns="http://www.w3.org/2000/svg" viewBox="0 0 19 17" id="heart">
    <path d="M17.3437 1.40626C16.4617 0.542118 15.2431 0.110229 13.6874 0.110229C13.2569 0.110229 12.8175 0.185127 12.3696 0.33485C11.9216 0.484682 11.5049 0.686826 11.1198 0.941134C10.7342 1.19537 10.4029 1.43412 10.1249 1.65702C9.84726 1.87999 9.58329 2.11695 9.33333 2.36771C9.08326 2.11695 8.81937 1.87999 8.54168 1.65702C8.26381 1.43412 7.93231 1.19552 7.54681 0.941134C7.16138 0.686716 6.74469 0.484719 6.2968 0.33485C5.84894 0.185164 5.40963 0.110229 4.9791 0.110229C3.42349 0.110229 2.20482 0.542228 1.32291 1.40626C0.440994 2.27022 0 3.46859 0 5.00147C0 5.46831 0.0817263 5.94926 0.244851 6.44371C0.407975 6.93841 0.593866 7.36001 0.802159 7.70833C1.01041 8.05661 1.24658 8.39625 1.51048 8.72725C1.77437 9.05821 1.96723 9.28631 2.08862 9.41172C2.21011 9.53714 2.30563 9.62782 2.37506 9.6836L8.87497 15.9754C9 16.1008 9.15277 16.1637 9.33329 16.1637C9.51382 16.1637 9.66669 16.1008 9.79166 15.9754L16.2812 9.70429C17.8715 8.10896 18.6666 6.54123 18.6666 5.00132C18.6667 3.46833 18.2257 2.27008 17.3437 1.40626ZM15.375 8.72201L9.33333 14.5643L3.28139 8.71147C1.98274 7.40881 1.33353 6.1719 1.33353 5.00132C1.33353 4.43702 1.40817 3.93877 1.5574 3.50688C1.70673 3.07492 1.89769 2.73165 2.13032 2.47734C2.36299 2.22296 2.64593 2.01584 2.97925 1.85547C3.31276 1.69524 3.63912 1.58721 3.95851 1.53149C4.2779 1.47585 4.61812 1.44799 4.97929 1.44799C5.34034 1.44799 5.72931 1.53673 6.14597 1.71446C6.56255 1.89211 6.94623 2.11508 7.29689 2.3833C7.64762 2.6517 7.94796 2.9025 8.19806 3.13583C8.44802 3.36938 8.65628 3.5835 8.82298 3.77861C8.9479 3.93196 9.11818 4.00861 9.33337 4.00861C9.54863 4.00861 9.71872 3.93196 9.84379 3.77861C10.0105 3.5835 10.2189 3.36927 10.4688 3.13583C10.7188 2.9025 11.0192 2.65181 11.3698 2.3833C11.7205 2.11508 12.1042 1.89211 12.521 1.71446C12.9375 1.53677 13.3266 1.44799 13.6877 1.44799C14.0488 1.44799 14.3889 1.47585 14.7084 1.53149C15.0279 1.58717 15.3543 1.69524 15.6877 1.85547C16.021 2.0158 16.304 2.22307 16.5366 2.47734C16.7692 2.73165 16.9602 3.07492 17.1096 3.50688C17.2586 3.93877 17.3333 4.43702 17.3333 5.00132C17.3332 6.1719 16.6806 7.41225 15.375 8.72201Z"></path>
  </symbol>
  <symbol xmlns="http://www.w3.org/2000/svg" viewBox="0 0 20 20" id="house">
    <path fill-rule="evenodd" clip-rule="evenodd" d="M3 20C1.34315 20 0 18.6568 0 17V9.33607C0 8.48561 0.360964 7.67512 0.993106 7.10619L7.9931 0.80619C9.13402 -0.220633 10.866 -0.220635 12.0069 0.806189L19.0069 7.10619C19.639 7.67512 20 8.48561 20 9.33607V17C20 18.6568 18.6569 20 17 20H3ZM18.5 9.33607V17C18.5 17.8284 17.8284 18.5 17 18.5H14V13C14 11.3431 12.6569 9.99998 11 9.99998H9C7.34315 9.99998 6 11.3431 6 13V18.5H3C2.17157 18.5 1.5 17.8284 1.5 17V9.33607C1.5 8.91084 1.68048 8.50559 1.99655 8.22113L8.99655 1.92113C9.56701 1.40772 10.433 1.40772 11.0034 1.92113L18.0034 8.22113C18.3195 8.50559 18.5 8.91084 18.5 9.33607ZM7.5 18.5V13C7.5 12.1716 8.17157 11.5 9 11.5H11C11.8284 11.5 12.5 12.1716 12.5 13V18.5H7.5Z"></path>
  </symbol>
  <symbol xmlns="http://www.w3.org/2000/svg" viewBox="0 0 12 15" id="location">
    <path d="M5.93098 0.0996094C3.02678 0.0996094 0.672363 2.51611 0.672363 5.4978C0.672363 7.90771 4.10927 12.3013 5.42606 13.8959C5.48782 13.9718 5.56505 14.0328 5.65229 14.0747C5.73954 14.1166 5.83467 14.1383 5.93098 14.1383C6.02729 14.1383 6.12243 14.1166 6.20967 14.0747C6.29692 14.0328 6.37415 13.9718 6.43591 13.8959C7.7527 12.3013 11.1896 7.90844 11.1896 5.4978C11.1896 2.51611 8.83519 0.0996094 5.93098 0.0996094ZM5.93098 7.11879C4.98665 7.11879 4.22179 6.33279 4.22179 5.36399C4.22179 4.39447 4.98737 3.6092 5.93098 3.6092C6.8746 3.6092 7.64018 4.39447 7.64018 5.36399C7.64018 6.33279 6.8746 7.11879 5.93098 7.11879Z"></path>
  </symbol>
  <symbol xmlns="http://www.w3.org/2000/svg" viewBox="0 0 16 17" id="m2">
    <path d="M14.2401 0.863257H2.24011C1.81566 0.863257 1.40866 1.03244 1.10862 1.33347C0.808602 1.6345 0.640112 2.0427 0.640112 2.46827V14.5084C0.640112 14.934 0.808602 15.3422 1.10862 15.6432C1.40866 15.9442 1.81566 16.1134 2.24011 16.1134H14.2401C14.6646 16.1134 15.0716 15.9442 15.3716 15.6432C15.6716 15.3422 15.8401 14.934 15.8401 14.5084V2.46827C15.8401 2.0427 15.6716 1.6345 15.3716 1.33347C15.0716 1.03244 14.6646 0.863257 14.2401 0.863257ZM2.24011 14.7847C2.16729 14.7847 2.09737 14.7556 2.04578 14.7039C1.99417 14.6521 1.96511 14.5818 1.96511 14.5084V7.83583H8.61511C8.68794 7.83583 8.75785 7.86486 8.80945 7.91663C8.86106 7.96841 8.89011 8.03871 8.89011 8.11209V14.7847H2.24011ZM14.5151 14.5084C14.5151 14.5818 14.4861 14.6521 14.4344 14.7039C14.3829 14.7556 14.3129 14.7847 14.2401 14.7847H10.2151V8.11209C10.2151 7.68652 10.0466 7.27831 9.7466 6.97729C9.44657 6.67625 9.03957 6.50707 8.61511 6.50707H1.96511V2.46827C1.96511 2.3949 1.99417 2.3246 2.04578 2.27281C2.09737 2.22104 2.16729 2.19202 2.24011 2.19202H14.2401C14.3129 2.19202 14.3829 2.22104 14.4344 2.27281C14.4861 2.3246 14.5151 2.3949 14.5151 2.46827V14.5084Z" stroke-width="0.2"></path>
  </symbol>
  <symbol xmlns="http://www.w3.org/2000/svg" viewBox="0 0 12 11" id="nature">
    <path d="M10.8944 2.11628C8.06956 0.429861 5.23595 0.29742 2.69715 1.70571C1.24515 2.50478 0.224355 3.82919 0.0351549 5.18893C-0.0265004 5.60864 -0.00210697 6.03656 0.106841 6.44648C0.215789 6.8564 0.406998 7.23969 0.668755 7.57287C1.45954 6.09838 2.66538 4.89004 4.13595 4.09849C4.16117 4.08236 4.1894 4.07155 4.21891 4.06673C4.24843 4.06191 4.27862 4.06318 4.30763 4.07046C4.33664 4.07774 4.36387 4.09088 4.38765 4.10907C4.41143 4.12726 4.43127 4.15013 4.44594 4.17627C4.46062 4.20242 4.46983 4.23129 4.47301 4.26113C4.47619 4.29096 4.47327 4.32113 4.46444 4.3498C4.4556 4.37847 4.44104 4.40503 4.42163 4.42785C4.40222 4.45068 4.37838 4.4693 4.35155 4.48257C1.47835 6.08953 0.541155 8.50438 0.00875494 10.6632C0.00843039 10.711 0.0239032 10.7576 0.0527549 10.7956C0.136355 10.9016 0.281555 10.8795 0.549955 10.8839H1.02515C1.50475 10.8839 1.50915 10.853 1.53995 10.6985C1.67304 10.033 1.87965 9.38443 2.15595 8.76485C4.29435 9.7096 7.22915 8.32338 8.45675 6.84003C8.94615 6.20499 9.31186 5.48309 9.53475 4.71214C9.83395 3.891 10.12 3.09635 10.912 2.50478C10.9419 2.48459 10.9664 2.45731 10.9834 2.42536C11.0004 2.39342 11.0092 2.35777 11.0092 2.32157C11.0092 2.28537 11.0004 2.24972 10.9834 2.21777C10.9664 2.18582 10.9419 2.15855 10.912 2.13836L10.8944 2.11628Z"></path>
  </symbol>
  <symbol xmlns="http://www.w3.org/2000/svg" viewBox="0 0 16 4" id="more">
    <path d="M2 4C3.10457 4 4 3.10457 4 2C4 0.89543 3.10457 0 2 0C0.89543 0 0 0.89543 0 2C0 3.10457 0.89543 4 2 4Z"></path>
    <path d="M8 4C9.10457 4 10 3.10457 10 2C10 0.89543 9.10457 0 8 0C6.89543 0 6 0.89543 6 2C6 3.10457 6.89543 4 8 4Z"></path>
    <path d="M14 4C15.1046 4 16 3.10457 16 2C16 0.89543 15.1046 0 14 0C12.8954 0 12 0.89543 12 2C12 3.10457 12.8954 4 14 4Z"></path>
  </symbol>
  <symbol xmlns="http://www.w3.org/2000/svg" viewBox="0 0 24 24" id="person">
    <path fill-rule="evenodd" clip-rule="evenodd" d="M12 10.5C13.933 10.5 15.5 8.933 15.5 7C15.5 5.067 13.933 3.5 12 3.5C10.067 3.5 8.5 5.067 8.5 7C8.5 8.933 10.067 10.5 12 10.5ZM12 12C14.7614 12 17 9.76142 17 7C17 4.23858 14.7614 2 12 2C9.23858 2 7 4.23858 7 7C7 9.76142 9.23858 12 12 12Z"></path>
    <path fill-rule="evenodd" clip-rule="evenodd" d="M9 15.75C6.65279 15.75 4.75 17.6528 4.75 20V21C4.75 21.4142 4.41421 21.75 4 21.75C3.58579 21.75 3.25 21.4142 3.25 21V20C3.25 16.8244 5.82436 14.25 9 14.25H15C18.1756 14.25 20.75 16.8244 20.75 20V21C20.75 21.4142 20.4142 21.75 20 21.75C19.5858 21.75 19.25 21.4142 19.25 21V20C19.25 17.6528 17.3472 15.75 15 15.75H9Z"></path>
  </symbol>
  <symbol xmlns="http://www.w3.org/2000/svg" viewBox="0 0 10 10" id="plus">
    <path d="M0 4.26966H4.26966V0H5.73034V4.26966H10V5.73034H5.73034V10H4.26966V5.73034H0V4.26966Z"></path>
  </symbol>
  <symbol xmlns="http://www.w3.org/2000/svg" viewBox="0 0 24 24" id="power">
    <path d="M15.7331 4.67337C15.928 4.29095 16.3981 4.13609 16.7623 4.36319C18.2476 5.28939 19.4358 6.63223 20.1733 8.23205C21.0196 10.0679 21.2233 12.1353 20.7513 14.101C20.2794 16.0667 19.1594 17.8163 17.5719 19.0678C15.9843 20.3194 14.0216 21 12 21C9.97845 21 8.01575 20.3194 6.42817 19.0679C4.8406 17.8163 3.72061 16.0667 3.24868 14.101C2.77675 12.1353 2.98036 10.0679 3.82671 8.23207C4.56423 6.63225 5.7524 5.2894 7.2377 4.3632C7.60189 4.1361 8.07203 4.29096 8.26689 4.67338C8.46174 5.0558 8.30694 5.52046 7.9469 5.75409C6.77094 6.51718 5.82951 7.60015 5.23822 8.88278C4.53803 10.4016 4.36958 12.1119 4.76001 13.7382C5.15044 15.3644 6.07701 16.8119 7.39041 17.8473C8.70382 18.8827 10.3276 19.4457 12 19.4457C13.6725 19.4457 15.2962 18.8826 16.6096 17.8472C17.923 16.8118 18.8496 15.3644 19.24 13.7382C19.6304 12.1119 19.462 10.4016 18.7618 8.88277C18.1705 7.60014 17.2291 6.51717 16.0531 5.75408C15.6931 5.52045 15.5383 5.05579 15.7331 4.67337Z"></path>
    <path fill-rule="evenodd" clip-rule="evenodd" d="M12 2.25C12.4142 2.25 12.75 2.58579 12.75 3V8C12.75 8.41421 12.4142 8.75 12 8.75C11.5858 8.75 11.25 8.41421 11.25 8V3C11.25 2.58579 11.5858 2.25 12 2.25Z"></path>
  </symbol>
  <symbol xmlns="http://www.w3.org/2000/svg" viewBox="0 0 19 19" id="search">
    <path fill-rule="evenodd" clip-rule="evenodd" d="M15.8723 14.8116C17.1996 13.2436 18 11.2153 18 9C18 4.02944 13.9706 0 9 0C4.02944 0 0 4.02944 0 9C0 13.9706 4.02944 18 9 18C11.2153 18 13.2436 17.1996 14.8116 15.8723L17.4697 18.5303C17.7626 18.8232 18.2374 18.8232 18.5303 18.5303C18.8232 18.2374 18.8232 17.7626 18.5303 17.4697L15.8723 14.8116ZM16.5 9C16.5 13.1421 13.1421 16.5 9 16.5C4.85786 16.5 1.5 13.1421 1.5 9C1.5 4.85786 4.85786 1.5 9 1.5C13.1421 1.5 16.5 4.85786 16.5 9Z"></path>
  </symbol>
  <symbol xmlns="http://www.w3.org/2000/svg" viewBox="0 0 24 24" id="settings">
    <path fill-rule="evenodd" clip-rule="evenodd" d="M12 14.5C13.3807 14.5 14.5 13.3807 14.5 12C14.5 10.6193 13.3807 9.5 12 9.5C10.6193 9.5 9.5 10.6193 9.5 12C9.5 13.3807 10.6193 14.5 12 14.5ZM16 12C16 14.2091 14.2091 16 12 16C9.79086 16 8 14.2091 8 12C8 9.79086 9.79086 8 12 8C14.2091 8 16 9.79086 16 12Z"></path>
    <path fill-rule="evenodd" clip-rule="evenodd" d="M10.9047 2.84189L10.5172 4.00455C10.1904 4.9849 9.47329 5.67937 8.72212 6.09762C8.65807 6.13329 8.59465 6.16997 8.53188 6.20765C7.79322 6.65109 6.83191 6.92568 5.81829 6.71826L4.61651 6.47233C4.40566 6.42918 4.19086 6.5258 4.08326 6.71218L3.46227 7.78775C3.35467 7.97413 3.3784 8.20846 3.52119 8.36949L4.33621 9.2886C5.02026 10.06 5.26522 11.0268 5.25157 11.8882C5.25039 11.9627 5.25039 12.0373 5.25157 12.1118C5.26521 12.9732 5.02025 13.9399 4.33621 14.7113L3.52119 15.6304C3.3784 15.7915 3.35467 16.0258 3.46228 16.2122L4.08326 17.2878C4.19086 17.4741 4.40566 17.5707 4.61651 17.5276L5.8182 17.2817C6.83184 17.0743 7.79316 17.3489 8.53183 17.7923C8.59461 17.83 8.65805 17.8667 8.72212 17.9024C9.47329 18.3206 10.1904 19.0151 10.5172 19.9955L10.9047 21.1581C10.9728 21.3623 11.1638 21.5 11.3791 21.5H12.621C12.8362 21.5 13.0273 21.3623 13.0954 21.1581L13.4829 19.9955C13.8097 19.0151 14.5268 18.3206 15.2779 17.9024C15.342 17.8667 15.4054 17.83 15.4682 17.7923C16.2069 17.3489 17.1682 17.0743 18.1819 17.2817L19.3835 17.5276C19.5944 17.5707 19.8092 17.4741 19.9168 17.2878L20.5377 16.2122C20.6453 16.0258 20.6216 15.7915 20.4788 15.6304L19.6639 14.7114C18.9798 13.94 18.7348 12.9732 18.7485 12.1118C18.7497 12.0373 18.7497 11.9627 18.7485 11.8882C18.7348 11.0267 18.9798 10.06 19.6639 9.28855L20.4788 8.36949C20.6216 8.20846 20.6453 7.97414 20.5377 7.78775L19.9168 6.71218C19.8092 6.5258 19.5944 6.42919 19.3835 6.47233L18.1818 6.71825C17.1682 6.92567 16.2068 6.65108 15.4682 6.20765C15.4054 6.16997 15.342 6.13329 15.2779 6.09762C14.5268 5.67937 13.8097 4.9849 13.4829 4.00455L13.0954 2.84189C13.0273 2.63771 12.8362 2.5 12.621 2.5H11.3791C11.1638 2.5 10.9728 2.63771 10.9047 2.84189ZM9.09413 3.53021C8.91189 4.07694 8.49591 4.50673 7.9924 4.78709C7.91408 4.83069 7.83655 4.87554 7.75983 4.9216C7.26514 5.21857 6.68428 5.36439 6.11901 5.24871L4.91723 5.00278C4.07385 4.8302 3.21465 5.21665 2.78422 5.96218L2.16324 7.03775C1.73281 7.78328 1.82773 8.72059 2.39888 9.36469L3.21391 10.2838C3.59582 10.7145 3.76088 11.2889 3.75176 11.8644C3.75033 11.9548 3.75033 12.0452 3.75176 12.1355C3.76087 12.7111 3.59582 13.2854 3.21391 13.7161L2.39888 14.6352C1.82773 15.2793 1.73281 16.2167 2.16324 16.9622L2.78422 18.0378C3.21465 18.7833 4.07385 19.1697 4.91723 18.9971L6.11892 18.7512C6.68421 18.6356 7.26507 18.7814 7.75977 19.0784C7.83651 19.1244 7.91406 19.1693 7.9924 19.2129C8.49591 19.4933 8.91189 19.9231 9.09413 20.4698L9.48169 21.6325C9.75391 22.4491 10.5182 23 11.3791 23H12.621C13.4819 23 14.2462 22.4491 14.5184 21.6325L14.9059 20.4698C15.0882 19.9231 15.5042 19.4933 16.0077 19.2129C16.086 19.1693 16.1635 19.1244 16.2403 19.0784C16.735 18.7814 17.3158 18.6356 17.8811 18.7512L19.0828 18.9971C19.9262 19.1697 20.7854 18.7833 21.2158 18.0378L21.8368 16.9622C22.2672 16.2167 22.1723 15.2793 21.6011 14.6352L20.7862 13.7162C20.4042 13.2855 20.2392 12.7111 20.2483 12.1356C20.2497 12.0452 20.2497 11.9548 20.2483 11.8644C20.2392 11.2888 20.4042 10.7144 20.7862 10.2838L21.6011 9.36469C22.1723 8.72059 22.2672 7.78328 21.8368 7.03775L21.2158 5.96218C20.7854 5.21666 19.9262 4.8302 19.0828 5.00279L17.881 5.2487C17.3158 5.36438 16.7349 5.21857 16.2402 4.92159C16.1635 4.87554 16.086 4.83069 16.0077 4.78709C15.5042 4.50673 15.0882 4.07694 14.9059 3.53021L14.5184 2.36754C14.2462 1.55086 13.4819 1 12.621 1H11.3791C10.5182 1 9.75391 1.55086 9.48168 2.36754L9.09413 3.53021Z"></path>
  </symbol>
  <symbol xmlns="http://www.w3.org/2000/svg" viewBox="0 0 12 12" id="telegram">
    <path d="M6.89381 11.1367L6.2516 10.3464C5.76086 9.74221 5.15402 9.24327 4.46581 8.8781C4.00846 8.63528 3.51968 8.45512 3.01232 8.34236L3.67021 7.59984L5.43247 5.59832L2.27428 7.33129C2.22739 6.05121 1.76931 4.82846 0.967993 3.84442L0.325786 3.05413L11.3561 0.732816L6.89381 11.1367Z"></path>
  </symbol>
  <symbol xmlns="http://www.w3.org/2000/svg" viewBox="0 0 24 24" id="tune">
    <path fill-rule="evenodd" clip-rule="evenodd" d="M6.32501 17.75H4C3.58579 17.75 3.25 17.4142 3.25 17C3.25 16.5858 3.58579 16.25 4 16.25H6.32501C6.67247 14.5383 8.18578 13.25 10 13.25C11.8142 13.25 13.3275 14.5383 13.675 16.25H20C20.4142 16.25 20.75 16.5858 20.75 17C20.75 17.4142 20.4142 17.75 20 17.75H13.675C13.3275 19.4617 11.8142 20.75 10 20.75C8.18578 20.75 6.67247 19.4617 6.32501 17.75ZM7.75 17C7.75 15.7574 8.75736 14.75 10 14.75C11.2426 14.75 12.25 15.7574 12.25 17C12.25 18.2426 11.2426 19.25 10 19.25C8.75736 19.25 7.75 18.2426 7.75 17Z"></path>
    <path fill-rule="evenodd" clip-rule="evenodd" d="M10.325 7.75H4C3.58579 7.75 3.25 7.41421 3.25 7C3.25 6.58579 3.58579 6.25 4 6.25H10.325C10.6725 4.53832 12.1858 3.25 14 3.25C15.8142 3.25 17.3275 4.53832 17.675 6.25H20C20.4142 6.25 20.75 6.58579 20.75 7C20.75 7.41421 20.4142 7.75 20 7.75H17.675C17.3275 9.46168 15.8142 10.75 14 10.75C12.1858 10.75 10.6725 9.46168 10.325 7.75ZM11.75 7C11.75 5.75736 12.7574 4.75 14 4.75C15.2426 4.75 16.25 5.75736 16.25 7C16.25 8.24264 15.2426 9.25 14 9.25C12.7574 9.25 11.75 8.24264 11.75 7Z"></path>
  </symbol>
  <symbol xmlns="http://www.w3.org/2000/svg" viewBox="0 0 8 16" id="arrow-left">
    <path fill-rule="evenodd" clip-rule="evenodd" d="M7.78033 15.0303C8.07322 14.7374 8.07322 14.2626 7.78033 13.9697L1.98744 8.17678C1.88981 8.07915 1.88981 7.92085 1.98744 7.82322L7.78033 2.03033C8.07322 1.73744 8.07322 1.26256 7.78033 0.96967C7.48744 0.676777 7.01256 0.676777 6.71967 0.96967L0.926777 6.76256C0.243359 7.44598 0.243361 8.55402 0.926778 9.23744L6.71967 15.0303C7.01256 15.3232 7.48744 15.3232 7.78033 15.0303Z"></path>
  </symbol>
  <symbol xmlns="http://www.w3.org/2000/svg" viewBox="0 0 8 16" id="arrow-right">
    <path fill-rule="evenodd" clip-rule="evenodd" d="M0.21967 15.0303C-0.0732233 14.7374 -0.0732234 14.2626 0.21967 13.9697L6.01256 8.17678C6.11019 8.07915 6.11019 7.92085 6.01256 7.82322L0.219669 2.03033C-0.0732239 1.73744 -0.0732239 1.26256 0.219669 0.96967C0.512562 0.676777 0.987436 0.676777 1.28033 0.96967L7.07322 6.76256C7.75664 7.44598 7.75664 8.55402 7.07322 9.23744L1.28033 15.0303C0.987437 15.3232 0.512563 15.3232 0.21967 15.0303Z"></path>
  </symbol>
  <symbol xmlns="http://www.w3.org/2000/svg" viewBox="0 0 23 17" id="bed">
    <path d="M20.4266 8.41486H20.04V3.93469C20.0378 2.01758 18.4894 0.463996 16.5787 0.461792H6.04438C4.13367 0.463996 2.58526 2.01758 2.58306 3.93469V8.41486H2.19643C1.11656 8.41612 0.24115 9.2943 0.240051 10.3778V13.0336C0.24115 14.1171 1.11656 14.9951 2.19643 14.9965H3.02037V15.5541C3.021 16.0847 3.44969 16.5147 3.97864 16.5153H5.49252C6.02132 16.5147 6.45016 16.0847 6.45078 15.5541V14.9965H16.1724V15.5541C16.173 16.0847 16.6016 16.5147 17.1305 16.5153H18.6449C19.1738 16.5147 19.6025 16.0847 19.603 15.5541V14.9965H20.4271C21.507 14.9951 22.3824 14.1171 22.3835 13.0336V10.3778C22.3824 9.29414 21.5068 8.41596 20.4266 8.41486ZM3.48593 3.93469C3.4875 2.51776 4.63217 1.36957 6.04438 1.36768H16.5787C17.9909 1.36957 19.1354 2.51776 19.137 3.93469V8.41486H18.308V6.84537C18.3072 6.21153 17.7954 5.69798 17.1636 5.69719H12.833C12.2015 5.69798 11.6894 6.21169 11.6888 6.84537V8.41486H10.9342V6.84537C10.9334 6.21169 10.4216 5.69798 9.78987 5.69719H5.45957C4.82784 5.69798 4.31584 6.21153 4.31506 6.84537V8.41486H3.48593V3.93469ZM17.405 8.41486H12.5918V6.84537C12.5918 6.71171 12.6998 6.60339 12.833 6.60324H17.1636C17.2969 6.60339 17.4048 6.71171 17.405 6.84537V8.41486ZM10.0314 8.41486H5.21793V6.84537C5.21824 6.71171 5.3262 6.60339 5.45957 6.60324H9.78987C9.92325 6.60339 10.0312 6.71171 10.0314 6.84537V8.41486ZM2.19643 9.32091H20.4266C21.0081 9.3217 21.4793 9.79448 21.48 10.3778V12.3642H1.14292V10.3778C1.14355 9.79448 1.61491 9.3217 2.19643 9.32091ZM5.54776 15.5538C5.54776 15.5844 5.52328 15.6091 5.49284 15.6091H3.97848C3.94804 15.6091 3.92356 15.5844 3.92356 15.5538V14.9965H5.54776V15.5538ZM18.6996 15.5538C18.6996 15.5844 18.675 15.6091 18.6446 15.6091H17.1305C17.1001 15.6091 17.0756 15.5844 17.0756 15.5538V14.9965H18.6998L18.6996 15.5538ZM20.4266 14.0906H2.19643C1.70592 14.0895 1.28069 13.7496 1.1707 13.27H21.4524C21.3422 13.7496 20.9173 14.0895 20.4266 14.0906Z" stroke-width="0.2"></path>
  </symbol>
  <symbol xmlns="http://www.w3.org/2000/svg" viewBox="0 0 22 17" id="building">
    <path d="M21.16 15.8731H20.2384V12.3414C20.2384 12.2562 20.2047 12.1746 20.1447 12.1143C20.0847 12.0541 20.0033 12.0203 19.9184 12.0203H17.7552V4.6357C17.7552 4.55055 17.7215 4.46888 17.6615 4.40867C17.6015 4.34846 17.5201 4.31463 17.4352 4.31463H15.2752V0.782862C15.2752 0.697709 15.2415 0.616043 15.1815 0.555831C15.1215 0.495619 15.0401 0.461792 14.9552 0.461792H7.5152C7.43033 0.461792 7.34894 0.495619 7.28893 0.555831C7.22891 0.616043 7.1952 0.697709 7.1952 0.782862V4.31463H5.0352C4.95033 4.31463 4.86894 4.34846 4.80893 4.40867C4.74891 4.46888 4.7152 4.55055 4.7152 4.6357V12.0203H2.552C2.46713 12.0203 2.38574 12.0541 2.32573 12.1143C2.26571 12.1746 2.232 12.2562 2.232 12.3414V15.8731H1.32C1.23513 15.8731 1.15374 15.907 1.09373 15.9672C1.03371 16.0274 1 16.1091 1 16.1942C1 16.2794 1.03371 16.361 1.09373 16.4213C1.15374 16.4815 1.23513 16.5153 1.32 16.5153H21.16C21.2449 16.5153 21.3263 16.4815 21.3863 16.4213C21.4463 16.361 21.48 16.2794 21.48 16.1942C21.48 16.1091 21.4463 16.0274 21.3863 15.9672C21.3263 15.907 21.2449 15.8731 21.16 15.8731ZM17.1344 4.95677V12.0203H16.8144V5.27784H15.5856V12.0203H15.2656V4.95677H17.1344ZM16.5136 7.8464V9.45175H15.896V7.8464H16.5136ZM15.896 7.20426V5.59891H16.5136V7.20426H15.896ZM16.5136 10.0939V11.6992H15.896V10.0939H16.5136ZM2.8624 12.6625H4.7248V15.8731H2.8624V12.6625ZM5.3456 4.95677H7.2048V15.8731H5.3456V4.95677ZM7.8256 1.10393H9.0672V9.77282C9.05537 9.82016 9.05446 9.86959 9.06453 9.91734C9.0746 9.96509 9.09539 10.0099 9.12532 10.0484C9.15524 10.0869 9.19352 10.118 9.23723 10.1394C9.28095 10.1608 9.32895 10.1719 9.3776 10.1719C9.42625 10.1719 9.47425 10.1608 9.51797 10.1394C9.56168 10.118 9.59996 10.0869 9.62988 10.0484C9.65981 10.0099 9.6806 9.96509 9.69067 9.91734C9.70074 9.86959 9.69983 9.82016 9.688 9.77282V1.10393H14.6544V12.0203H10.3088C10.2239 12.0203 10.1425 12.0541 10.0825 12.1143C10.0225 12.1746 9.9888 12.2562 9.9888 12.3414V15.8731H7.8256V1.10393ZM10.6192 12.6625H19.6176V15.8731H10.6192V12.6625Z" stroke-width="0.2"></path>
    <path d="M5.65576 5.27765V12.0201H6.89416V5.27765H5.65576ZM6.58376 11.699H5.96616V10.0937H6.58376V11.699ZM6.58376 9.45155H5.96616V7.84621H6.58376V9.45155ZM6.58376 7.20407H5.96616V5.59872H6.58376V7.20407Z" stroke-width="0.2"></path>
  </symbol>
  <symbol xmlns="http://www.w3.org/2000/svg" viewBox="0 0 11 17" id="bookmark">
    <path d="M9.48338 0.643646H1.56277C0.791734 0.643646 0.160889 1.34537 0.160889 2.20304V15.8087C0.160889 16.1791 0.353647 16.5299 0.651546 16.6859C0.966968 16.8418 1.31744 16.8028 1.58029 16.5689L1.59781 16.5494L5.52307 12.8654L9.44833 16.5494L9.46585 16.5689C9.62356 16.7054 9.81632 16.7833 10.0091 16.7833C10.1317 16.7833 10.2719 16.7443 10.3946 16.6664C10.6925 16.5104 10.8853 16.1596 10.8853 15.7892V2.20304C10.8853 1.34537 10.2544 0.643646 9.48338 0.643646Z"></path>
  </symbol>
  <symbol xmlns="http://www.w3.org/2000/svg" viewBox="0 0 20 20" id="calendar">
    <path fill-rule="evenodd" clip-rule="evenodd" d="M5 0.25C5.41421 0.25 5.75 0.585786 5.75 1V2H14.25V1C14.25 0.585786 14.5858 0.25 15 0.25C15.4142 0.25 15.75 0.585786 15.75 1V2H17C18.6569 2 20 3.34315 20 5V17C20 18.6569 18.6569 20 17 20H3C1.34315 20 0 18.6569 0 17V5C0 3.34315 1.34315 2 3 2H4.25V1C4.25 0.585786 4.58579 0.25 5 0.25ZM14.25 3.5V5C14.25 5.41421 14.5858 5.75 15 5.75C15.4142 5.75 15.75 5.41421 15.75 5V3.5H17C17.8284 3.5 18.5 4.17157 18.5 5V8.25H1.5V5C1.5 4.17157 2.17157 3.5 3 3.5H4.25V5C4.25 5.41421 4.58579 5.75 5 5.75C5.41421 5.75 5.75 5.41421 5.75 5V3.5H14.25ZM1.5 9.75V17C1.5 17.8284 2.17157 18.5 3 18.5H17C17.8284 18.5 18.5 17.8284 18.5 17V9.75H1.5Z"></path>
  </symbol>
  <symbol xmlns="http://www.w3.org/2000/svg" viewBox="0 0 24 24" id="compass">
    <path fill-rule="evenodd" clip-rule="evenodd" d="M12 20.5C16.6944 20.5 20.5 16.6944 20.5 12C20.5 7.30558 16.6944 3.5 12 3.5C7.30558 3.5 3.5 7.30558 3.5 12C3.5 16.6944 7.30558 20.5 12 20.5ZM22 12C22 17.5228 17.5228 22 12 22C6.47715 22 2 17.5228 2 12C2 6.47715 6.47715 2 12 2C17.5228 2 22 6.47715 22 12Z"></path>
    <path fill-rule="evenodd" clip-rule="evenodd" d="M14.9368 9.06319L10.8779 10.5853C10.7427 10.636 10.636 10.7427 10.5853 10.8779L9.06319 14.9368L13.1221 13.4147C13.2573 13.364 13.364 13.2573 13.4147 13.1221L14.9368 9.06319ZM15.4401 7.27246L10.3512 9.18079C9.81036 9.38361 9.38361 9.81035 9.18079 10.3512L7.27246 15.4401C6.97101 16.244 7.75603 17.029 8.55992 16.7275L13.6488 14.8192C14.1896 14.6164 14.6164 14.1896 14.8192 13.6488L16.7275 8.55992C17.029 7.75603 16.244 6.97101 15.4401 7.27246Z"></path>
  </symbol>
</svg>

 

